<?xml version="1.0" encoding="utf-8"?>
<!-- Generator: Adobe Illustrator 26.0.3, SVG Export Plug-In . SVG Version: 6.00 Build 0)  -->
<svg version="1.1" id="Layer_1" xmlns="http://www.w3.org/2000/svg" xmlns:xlink="http://www.w3.org/1999/xlink" x="0px" y="0px"
	 viewBox="0 0 480.1 554" style="enable-background:new 0 0 480.1 554;" xml:space="preserve">
<style type="text/css">
	.st0{display:none;}
	.st1{fill:#D8AC54;}
	.st2{fill:#443B21;}
	.st3{fill:#3B2314;}
	.st4{fill:#BB9377;}
	.st5{fill:#3A7778;}
	.st6{fill:#604B43;}
	.st7{fill:#326363;}
	.st8{fill:#7F7262;}
	.st9{fill:#75685B;}
	.st10{fill:#408588;}
	.st11{fill:#D7AD8E;}
	.st12{fill:#BE9780;}
	.st13{fill:#302E28;}
	.st14{fill:#3D392F;}
	.st15{display:none;fill:#433F37;}
	.st16{fill:#433F37;}
	.st17{fill:#DCB59A;}
	.st18{fill:none;}
	.st19{fill:#CEAD9B;}
	.st20{fill:#BA8E2E;}
	.st21{fill:#4E7134;}
	.st22{fill:#DBA728;}
	.st23{fill:#ECE5E1;}
	.st24{fill:#443B37;}
	.st25{fill:#B76C42;}
	.st26{fill:#9E4A23;}
	.st27{fill:#E2D7D2;}
	.st28{fill:#8C3F1F;}
</style>
<g id="Layer_1_00000027563401296785786170000004888999213613209993_" class="st0">
</g>
<g id="Layer_16" class="st0">
</g>
<g id="Layer_21">
	<g>
		<path class="st1" d="M456.1,122.8L264.2,11.1c-15-8.7-33.4-8.7-48.4,0L23.9,122.8C9.1,131.4,0,147.3,0,164.4v224.2
			c0,17.1,9.1,32.9,23.9,41.5l84.4,49.2l0,0l263.6-1.8v1.7l84.3-49.1c14.8-8.6,23.9-24.4,23.9-41.5V164.4
			C480,147.3,470.9,131.4,456.1,122.8z"/>
		<path class="st2" d="M108.3,479.3L108.3,479.3l107.5,62.6c15,8.7,33.4,8.7,48.4,0l107.6-62.7v-1.7L108.3,479.3z"/>
	</g>
</g>
<g id="Layer_22">
	<path class="st2" d="M465.5,419.9l-96.8,57.7l1.4,2.6c38.6-21.8,88.7-50.9,91.8-54L465.5,419.9z"/>
</g>
<g id="Layer_12">
	<path class="st3" d="M252.1,246.1c-0.8-0.2-8-16.1-8.7-16.2c-2-0.3,4.3,20.5,3.4,22.9c-1.5,3.8-1.3,8.1-0.3,12
		c0.3,1.2,0.8,2.5,1.8,3.2c0.6,0.4,1.3,0.5,2,0.6c1.7,0.3-1.3,6.2,0.4,6.4c0.5,0.1,13.7,2.1,14,1.7c1-1.1,1.3-6.6,1-6.9l0.1-9.1
		c0-2-3-8.8-3.3-10.8L252.1,246.1z"/>
</g>
<g id="Layer_5">
	<path class="st4" d="M264.9,279.1l-3.4,17.2l20.5,6.8l16.2-8.8l-2.1-8.4l1.6-3.6l7.2-5l-3.7-45.7l-38.6,18.8
		C265.5,260.2,266.2,269.8,264.9,279.1z"/>
</g>
<g id="Layer_6">
	<path class="st5" d="M211.3,399.8c12.3-9.4,38.3-23.9,36-28.5c3.4,6.9,10.7,33.9,8.9,50.3c-0.1,1.3,0.5,2.4,1.7,2.9
		c11.2,4.9,21.5,6.4,31,5.5c1.2-0.1,2.3,0.2,3.3,0.9c5.7,4.1,11.1,6.6,16,5.2c1.1-0.3,2.2-0.2,3.2,0.3c6.8,3.7,13.7,5.5,20.5,4.8
		c0.7-0.1,1.3,0,2,0.1c7.3,1.8,14.7,2.3,22.3,1.9c1.3-0.1,2.5,0.2,3.7,0.6c17,6.6,33.4,10.1,41.3,5.5c2-1.2,2.7-3.7,1.6-5.7
		c-10.1-18.5-22.8-37.6-23.4-46.2l-6.9-19.9l-32.2-5.4l-46.2-53.3c9.8-19.7,17.3-37.6,12.2-58.1c-17.3,44.2-24.6,56.7-41.6,15.7
		l-25.8-4.4l-13.3,9.4l-6.4,29.7c-4.3,13.8-5.3,39.9-7.9,49.2c-1.8,1.5-4.3,1.5-5.5,4.6c-2,1.6-4,3.3-6,4.9
		c-3.7,3.1-7.5,6.2-11.2,9.3c-0.2,0.1-1.7,1.4-1.6,3.5c0,1.3,0.6,2.6,1.8,3.4l18.9,13.8C208.8,400.7,210.2,400.6,211.3,399.8z"/>
</g>
<g id="Layer_13">
	<path class="st6" d="M302.1,297.7"/>
	<path class="st7" d="M252.8,321.7c-2.9,16.5-1.5,36.9-5,50.8c6.2,18.2,10.9,33.2,9,49.8c4.5-5.6,9.3-6.2,15.7-6.2
		c0.5,0,0.9,0,1.4,0.1l14,1.9c11.4,0.5,21.9,2.3,31,5.9c1.6,0.6,3.3,1.1,5,1.4c8.1,1.4,36.9-3.5,41.8-7.7l-0.4-39
		c0.8-0.2-16.9-18.5-16.9-18.5l-28.5-46C295.3,327.3,263.5,337.8,252.8,321.7z"/>
</g>
<g id="Layer_17">
	<path class="st8" d="M368.9,477.6l-264,1.8L226.2,420c3.9-1.9,8.3-2.9,12.7-2.9l226.7,2.8L368.9,477.6z"/>
	<path class="st8" d="M-241.4-199.6"/>
	<path class="st9" d="M282.3,429.1c3.5,1.6,8.1-0.7,11.3,1.5c1.2,0.8,2,2.1,3.1,3c1.7,1.3,4,1.7,6.1,1.6c6.1-0.1,12-2.9,16-7.5
		c0.8-0.9,1.6-2,1.7-3.3c0.1-1.9-0.8-5.1-2.6-5.8c-1.8-0.7-4.9-0.2-6.8-0.1c-4.5,0.3-8.5,1.5-13,1.8c-3.2,0.2-6.2,0.2-9.3-0.7
		c-2-0.6-4.1-1.9-6.2-1.1C277.9,420.2,277.9,427.2,282.3,429.1z"/>
	<path class="st9" d="M425.9,441.8c3.8-1.4,6.6-5.4,7.6-10.6c0.2-1.1,0.1-2.2,0-3.5c-0.2-2-2.2-4.6-3.5-4.9
		c-1.4-0.3-3.2,0.9-4.3,1.4c-2.8,1.2-4.9,3.3-7.6,4.5c-1.9,0.9-3.8,1.5-6.1,1.4c-1.4-0.1-3.2-0.9-4.3,0.3c-2.4,2.6,0.3,7.8,3,9.9
		C414.4,443.3,420,442.8,425.9,441.8z"/>
</g>
<g id="Layer_7">
	<path class="st10" d="M279.7,431c-0.1-0.7-0.4-0.8-0.4-2.3c-0.3-1.7-13.6-18.8-11.9-20.5c2.1-2.1,2.3-3.4,12.2-9.2
		c1.6-0.9,1.3-1.5,4.7-3.8c6.1-4.1,9.4-3.6,11.8-5c1.9-1.1,3-2.1,3.5-2.7c0.6-0.7,1.4-1.3,2.3-1.6c1.5-0.5,2.1-0.1,3.9-1.3
		c2.7-4.6,6.8-13.5,9.3-21.5l3.1-9l41.7,21.2c-5.3,8.6-15.6,35.4-67.1,55.9c-2.6,1-5.4,1.5-8.1,1.5c-1.2,0-2.3-0.4-3.4-0.9
		L279.7,431z"/>
	<path class="st7" d="M276.8,329.7"/>
</g>
<g id="Layer_10">
	<g>
		<path class="st11" d="M112.8,296.9L112.8,296.9l0.8,0.9C113.4,297.5,113.2,297.1,112.8,296.9z"/>
		<path class="st12" d="M113.7,297.8L113.7,297.8L113.7,297.8L113.7,297.8z"/>
		<path class="st11" d="M108.7,290.3c0.3,0.3,0.6,0.7,0.8,1.1"/>
		<path class="st11" d="M124.2,276.5"/>
		<path class="st12" d="M120.8,272c0.3,0.2,0.9,0.2,1.2,0.4C121.7,272.2,121.3,272,120.8,272z"/>
		<path class="st12" d="M111.1,279.9c0-0.3,0.1-0.6,0.2-0.8C111.1,279.3,111.1,279.6,111.1,279.9z"/>
	</g>
</g>
<g id="Layer_4">
	<path class="st11" d="M262.2,250.4c-4.8-0.1-9.2-2.5-11.9-6.5l0,0c-5.4-8.1-7.2-11.9-7.7-21.1c0-0.8-1.2-0.4-1.3-1.2
		c-3-15.7-0.6-30.5,9.1-42.5c0.9-1.1,1.6-2.4,2-3.7c3.3-10,8.9-17.2,16.9-22.4l2.6-1.8c4.9-3.3,11.4-2.3,15.3,2.1
		c1.7,1.9,3.7,3.7,5.9,5.3c0.3,0.2,0.5,0.4,0.8,0.6c5.1,3.4,6.9,9.3,6.2,16.5c-0.1,0.7-0.1,1.4-0.1,2.1v0.3c0.1,2.2,1,4.3,2.4,6.1
		c3.1,4,3.7,8.7,2.2,13.3c-1.1,3.9-0.9,6.7,0,9.7c1.1,3.9,0.3,8.1-2.3,11.2l-0.1,0.2c-0.4,0.5-0.3,1.1-0.2,1.7l0.2,4.9
		c0.1,2.2-0.4,4.5-1.5,6.4c-7.5,13.6-23.9,17.5-29.8,18.5c-1.2,0.2-2.4,0.3-3.5,0.3H262.2z"/>
	<path class="st11" d="M297,235.6"/>
</g>
<g id="Layer_2_00000137852190910536456210000005366767774763995272_">
	<g id="Layer_15">
		<g id="Layer_8">
			<g id="Layer_9">
			</g>
			<polygon class="st13" points="377.7,437.4 229,439.9 181.9,463.3 334.9,463.3 			"/>
			<rect x="181.9" y="463.3" class="st14" width="153" height="6.6"/>
			<polygon class="st14" points="377.3,442.7 334.9,469.9 334.9,463.3 377.7,437.4 			"/>
			<polygon class="st15" points="257.1,376.1 227,376.1 254.9,362 277.9,362 			"/>
			<polygon class="st16" points="343.4,455.5 237.1,455.5 259.2,442 368.9,440.6 			"/>
			<polygon class="st16" points="333.6,462 228.5,461.7 235.5,457.4 340.2,457.8 			"/>
			<path class="st17" d="M284.1,429.9l-26.2,8.5c0,0-0.1,0-0.1,0.1l-7.7,4.9c-0.9,0.6-1.9,1-2.9,1.4l-2,0.7l0,0
				c-0.9,0.2-1.7,0.2-2.8,0c-7.1-1.4-15.9-2.2-25.9-3c-0.2,0-0.3,0-0.4,0.1c-4.6,4.3-5.8,7.5-3.6,12.7l0,0c0.2,0.5,0.6,0.9,1,1.2
				c1.6,1.2,0.6,3-2,2.5h-0.1c-2.4-1.1-4.6-2.5-6.1-5.2c-0.2-0.3-0.6-0.4-0.9-0.1c-0.7,1-2.7,0.3-4.2-0.8c-0.4-0.3-0.7-0.5-1-0.9
				l-4.7-5c-0.5-0.5-1.2-1.2-1.9-1.2c-2.5,0-4.9-2.9-6.6-5.8c-0.6-1-0.7-2.2-0.3-3.2c1.1-2.9,3.6-4.8,5.2-6.1
				c0.3-0.2,0.6-0.5,0.9-0.6c1.8-1,6.6-3.5,6.2-3.8c-0.2-0.1-8.8,2.2-9.4,2.6c0,0,0,0-0.1,0.1l-12.7,10.7c-0.5,0.4-1.1,0.6-1.8,0.6
				c-1.1-0.1-1.8-0.7-1.9-1.7c-0.1-0.7,0.1-1.4,0.4-1.9c3.2-5.8,6.8-10.9,11.3-14.9c2.1-1.7,4.3-2.4,7.1-2.9l9.1-1.1h0.1
				c16.2,2.2,31.4,3.5,44.9,3.3c0.8,0,1.6-0.2,2.2-0.5l22.8-11.1c0.1,0,0.2,0,0.3,0c7.8,2.8,12.5,9.4,14.5,19.2
				C285,429.1,284.7,429.7,284.1,429.9z"/>
		</g>
		<g id="Layer_11">
			<path class="st18" d="M269.3,244.1c0.9,0.1,1.8,0.1,2.6,0.2c0.5,0,1,0.1,1.4,0.3c-0.2,0.1-0.5,0.1-0.7,0.1
				c-0.7-0.1-1.5-0.1-2.2-0.1c-0.4,0-0.8,0.1-1.1,0c-0.2-0.1-0.4-0.2-0.6-0.2s-0.4,0-0.5,0c-0.3-0.1-0.3-0.5,0.1-0.5
				c0.1,0,0.3,0.2,0.4,0.2C268.9,244.1,269.1,244.1,269.3,244.1z"/>
			<path class="st19" d="M288.1,236.8"/>
		</g>
		<path class="st11" d="M190.8,144.4"/>
	</g>
	<g id="Layer_19">
	</g>
	<path class="st6" d="M295.4,237.2c-1.6-3.2-1.1-8.3,0.5-10.6l5.1-9.2c-1.4-5-1.6-9.7,0-14c0.4-1.1,0.7-2.3,0.6-3.4
		c-0.1-4.1-0.8-7.9-3.1-10.7c-1-1.2-1.5-2.7-1.4-4.3c0.7-8.7-0.6-16.2-7.1-20.5c-0.1,0-0.1-0.1-0.2-0.1c-7.2-3.9-10.9-9.4-11.1-18.5
		c0-1.2,0.8-2.2,2-2.4c17.9-3.2,30.5,6.7,36.9,21.7c0.7,1.5,1.8,2.8,3.3,3.6c11.2,5.9,16,14.6,15.7,25.4c-0.3,6.4,1.7,10.6,5.9,12.8
		c0.9,0.5,1.7,1,2.4,1.7c7.7,7.5,10.7,17.1,10.5,28.2c0,2.2,0.9,4.3,2.6,5.7c11,9.1,17.9,16.7,16.2,28.3c-0.2,1.6,0.2,3.1,1.1,4.4
		c8.8,11.8,13.1,23.8,9,36.1c-0.6,1.8-0.5,3.7,0.3,5.5c5,11.6,8.8,23.5,7.7,34.8c-0.2,2,0.7,4,2.3,5.2c9.8,7.3,15.7,14.5,12.4,21.5
		c-1,2.2-2.9,3.9-5.1,5c-5.5,2.7-8.5,6-4.7,11.2c0.3,0.5,0.6,1,0.8,1.5c1.9,4.8,1.1,8.3,0.3,11.6c-0.4,2-1.3,3.5-2.9,2.1
		c-1.9-1.5-4.3-1.9-7.5-1.1c-0.7,0.2-1.5,0.2-2.2,0c-4.5-1-7.7-3.5-9.6-7.6c-0.1-0.2-0.1-0.4-0.2-0.6c-1.2-6.1-3.7-10.3-9.8-12.3
		c-0.9-0.3-1.7-0.9-2.2-1.7l-1.1-1.7c-0.8-1.3-2.5-1.8-3.8-1c-1.7,0.9-3.7,1.1-6,0.8c-1.6-0.2-3.1,0.7-3.8,2.1
		c-1,2.1-2.1,4.4-3.6,6.3c-1.9,2.3-5.4,2-7.1-0.4c-3.2-4.8-4.3-9.9-7-13.5c-0.8-1.1-2.4-1.2-3.5-0.3c-0.5,0.4-1.1,0.7-1.9,0.7
		c-1.6,0.2-3.7-0.8-4.7-2c-3.9-5-4.8-11.2-5.9-17.6c-0.1-0.4-0.3-0.9-0.6-1.2c-1.4-1.6-3-2.7-4.7-3.1c-1-0.2-1.8-0.8-2.5-1.5
		c-5.6-6.3-10.5-16.6-16.5-27.9c-0.6-1.1-0.4-2.5,0.6-3.2c1.2-0.9,0.1-2.9-0.7-5.8c-0.1-0.3-0.1-0.6-0.2-0.9
		c-1.1-6.2,1.9-10.3,5.7-14.3c0.7-0.7,0.9-1.7,0.5-2.6c-2.5-6.1-2.2-11.8,1.8-16.9c0.7-0.9,0.7-2.2-0.1-3c-2.7-3-4.1-9-1.8-12.7
		C301.3,257.2,300.7,247.4,295.4,237.2z"/>
	<g id="Layer_3">
		<path class="st6" d="M251.3,261.7c-1.4,5,1.2,11.9-2.4,13.3c-0.9,0.3-1.7,0.8-2.3,1.4l-1.1,1c-3.1,3-0.9,9.3-2.5,11
			c-3,3.2-3.9,2-5.9,3.3c-3.8,2.5-0.3,7.5,0.2,8.4c3.7,6.7-3.3,8-2.5,9.8c3.3,7.4-5.9,9.6-8.9,14.9c-1.3,2.3-4.5,4.3-7.1,4.6
			c-1.3,0.1-2.6,0.4-3.7,0.9c-2.6,1-5-1.4-4.2-4.1c0.2-0.6,0.3-1.1,0.3-1.7c0.1-1.4-0.5-2.8-1.5-3.8l-3.9-3.9
			c-0.4-0.4-0.8-0.8-1.1-1.3c-5.1-7.3-3.7-11.9,4.5-13.7c0.9-0.2,1.8-0.5,2.6-1c3.5-2,4-5,1.2-9.1c-4.8-8.2-2.8-14.3,4.8-18.7
			c0.5-0.3,1.1-0.5,1.6-0.7c9.2-3.6,9.2-10.5,5.3-18.8c-0.2-0.5-0.5-0.9-0.8-1.4c-3.2-4.6-2.1-8.5,3.2-11.6c2.9-1.7,4.6-4.9,4.6-8.2
			c0-0.9-0.1-1.9-0.4-2.9c-0.2-0.9-0.5-1.7-0.9-2.6c-4.2-8.5-3.7-15.8,1.7-22.1c1.1-1.3,1.3-3.1,0.4-4.6c-3.5-5.6-1.7-10.7,5.2-13.4
			c1.5-0.6,2.6-2,2.9-3.6c0.6-3.4,2.4-5.9,5.4-7.5c0.9-0.5,1.7-1.3,2.1-2.3c2.2-5.2,5.1-9.4,9.6-11.4c2.1-0.9,3.9-2.4,5.2-4.2
			c4.5-6.4,8.8-10.2,15.3-13.2c1.2-0.6,2.7-0.1,3.3,1.1l0.4,0.7c0.6,1.2,0.2,2.6-0.8,3.3c-7.4,5.1-14.1,10.4-19.8,15.8
			c-0.3,0.3-0.6,0.6-0.8,0.9c-3.1,4.1-5.5,9-7.3,14.6c-0.1,0.3-0.3,0.6-0.5,0.9c-7.5,8.8-11,18.9-10.9,30.1c0,1.4,0.2,2.8,0.4,4.2
			c0.3,1.5,0.4,3.1,0.4,4.6c0.3,9.7,2.4,19.2,7.7,28.5c0.1,0.2,0.9,1.1,1,1.4C252.5,254.5,252.4,257.8,251.3,261.7z"/>
	</g>
	<g>
		<path class="st6" d="M279.5,178c5-7.7,13.4-3.2,18.3,1.9c1.6,1.5,3,3.1,4,5.1c-4.2-0.2-8.1-2.5-11.8-3.7c-1.3-0.5-3.3-1.2-4.5-1.6
			C283.5,179.2,281.5,179.1,279.5,178L279.5,178z"/>
	</g>
	<g>
		<path class="st6" d="M268.8,176.3c-2.3,0.5-4.1,0.3-6.2,0.2c-1.3,0.1-3.4,0.4-4.7,0.6c-3.9,0.4-8.2,1.8-12.4,1
			c1.5-1.7,3.2-3,5.1-4.1c2.8-1.6,5.9-3.4,9.4-3.6c1.3-0.1,2.7,0,4,0.4C266.3,171.9,268,173.7,268.8,176.3L268.8,176.3z"/>
	</g>
</g>
<g id="Layer_18">
	<path class="st20" d="M426.5,437.4l-12.8-0.2c-2,0-3.8-1.4-4.3-3.3l-10.7-36.4c-0.3-1.8,0.4-1.9,1.7-2.6c8.5-4.2,26.9-5.1,38.9-0.3
		c1.6,0.6,2.6,1.4,2.3,3l-10.7,36.5C430.4,436,428.5,437.4,426.5,437.4z"/>
	<path class="st21" d="M407.5,399.4l22.5,4.5c3.8-17.2,7-33.6,6.2-44.4c-6.3,6.4-9.9,15.2-12.1,25.2c2.3-11.6,2.3-23.6,0.1-36
		c-5.8,10.7-8.3,22.3-7.4,35c0,0,3.3-9.4-11.2-35c-0.7,13.2,0.1,25.3,3.6,35.3c-2.1-8.8-8.9-19.3-17.2-29.2
		C395.2,371.6,399.9,387,407.5,399.4z"/>
	<path class="st22" d="M426.5,437.4l-12.8-0.2c-2,0-3.8-1.4-4.3-3.3l-10.7-36.4c-0.5-1.6,1.1-3.1,2.7-2.4c13,5.2,25.4,5.1,37.5,0.1
		c1.6-0.7,3.2,0.8,2.7,2.4l-10.7,36.5C430.3,436,428.5,437.4,426.5,437.4z"/>
</g>
<g id="Layer_14">
	<g>
		<path class="st23" d="M290.9,186.7c-5.1-0.3-9.4,1.7-9.6,4.7c-0.1,1.6,1,3.1,2.9,4.2c-0.3-0.5-0.5-1.1-0.5-1.8
			c0-2.6,1.7-4.6,3.8-4.6c2.1,0,3.8,2.1,3.8,4.6c0,1.8-0.7,3-1.8,3.5c0.2,0,0.3,0,0.5,0.1c5.1,0.3,9.6-4.7,9.6-4.7
			S296,187.1,290.9,186.7z"/>
		<path class="st24" d="M291.4,193.7c0-2.6-1.7-4.6-3.8-4.6c-2.1,0-3.8,2.1-3.8,4.6c0,0.7,0.2,1.3,0.5,1.8c1.4,0.8,3.3,1.4,5.4,1.7
			C290.8,196.7,291.4,195.5,291.4,193.7z"/>
	</g>
	<g>
		<path class="st23" d="M261,182.6c-4.7-1.1-9,0.1-9.7,2.7c-0.4,1.5,0.3,3,2,4.3c0-0.2,0-0.4,0-0.5c0-2.6,1.7-4.6,3.8-4.6
			s3.8,2.1,3.8,4.6c0,1.3-0.5,2.5-1.2,3.4c5.1,1,8.7-3,8.7-3S265.8,183.8,261,182.6z"/>
		<path class="st24" d="M257.1,184.4c-2.1,0-3.8,2.1-3.8,4.6c0,0.2,0,0.4,0,0.5c1.2,0.9,3,1.8,5.4,2.6c0.4,0.1,0.7,0.2,1,0.3
			c0.7-0.8,1.2-2,1.2-3.4C260.9,186.5,259.2,184.4,257.1,184.4z"/>
	</g>
	<path class="st12" d="M263.7,206.8l10,2.7c-0.3,1.5-3,2.5-4.8,2.8c-0.8,0.1-1.6-0.1-2.3-0.5C265.3,210.8,263.3,208.9,263.7,206.8z"
		/>
	<path class="st25" d="M252.8,220.1c8.7,0.7,17.4,2.9,26.1,6.7l0,0c-0.1,0.6-0.4,1.5-0.9,2.2c-10.8,15.3-24.4,10.1-25.2-7.7V220.1z"
		/>
	<path class="st26" d="M253.2,220.7c7.8,2.9,16.2,5,25.1,6.4l-0.3,0.7c-11.3,10.4-20.1,9-24.8-6.4L253.2,220.7L253.2,220.7z"/>
	<path class="st27" d="M253.2,220.7l25.1,6.4l-2.5,1.4c-7.7-1.1-14.8-2.9-21.5-5.6L253.2,220.7z"/>
	<path class="st28" d="M256.2,228.6l0.3,0.5c3.7,5.3,8.3,6.9,14.1,3.9l0.6-0.3C267,228.8,262.1,227.3,256.2,228.6z"/>
</g>
<g id="Layer_20">
	<g>
		<path class="st18" d="M118.3,415.9c0.2-0.3,0.5-0.6,0.8-0.8c1.6-1.3,5.9-4.7,5.4-4.8c-0.2-0.1-8.3,3.7-8.7,4.3c0,0,0,0.1-0.1,0.1
			l-0.4,0.4v4.9C116.2,418.3,117.5,416.9,118.3,415.9z"/>
		<path class="st17" d="M116.6,413.8c0.4-0.1,0.8-0.3,1.2-0.5c1.9-0.9,6.6-3.1,6.8-3.1c0.4,0.1-3.8,3.5-5.4,4.8
			c-0.3,0.3-0.6,0.5-0.9,0.9c-0.8,1-2,2.4-2.9,4c-1.4,2-1.3,4,0,6.2c2.1,2.5,5,4.8,7.3,4.3c0.7-0.1,1.6,0.4,2.1,0.8l5.5,4.1
			c0.4,0.3,0.8,0.5,1.2,0.7c1.6,0.7,3.6,1,4.1,0c0.2-0.3,0.6-0.4,0.9-0.1c1.9,2.4,4.4,3.3,7,4h0.1c2.7,0,3.3-1.9,1.5-2.8
			c-0.5-0.2-0.9-0.6-1.2-1l0,0c-3-4.7-2.4-8,1.3-13.1c0.1-0.1,0.2-0.2,0.4-0.2c10-1,18.9-1.8,26.1-1.7c1.1,0,1.9-0.2,2.8-0.5l1.9-1
			c0.9-0.5,1.8-1.1,2.6-1.9l6.7-6.2l0.1-0.1l24.3-13.1c0.5-0.3,0.7-0.9,0.5-1.4c-3.7-9.3-9.6-14.9-17.8-16.2c-0.1,0-0.2,0-0.2,0.1
			l-20.4,15c-0.6,0.4-1.3,0.7-2.1,0.9c-13.2,2.6-28.4,4-44.8,4.9h-0.1l-8.8,2.8c-0.3,0.1-0.6,0.2-0.9,0.4c-7,4-7.2,7.1-2.7,9.1
			c1.2,0.5,2.5,0.6,3.8,0.2L116.6,413.8z"/>
		<path class="st13" d="M115.2,425.9c0.1,0.1,0.1,0.1,0.2,0.2"/>
		<path class="st13" d="M114.3,422.8"/>
	</g>
	<rect x="143.3" y="401.5" class="st13" width="24.6" height="62.3"/>
	<path class="st13" d="M163.1,456.6c-12.6-4.5-20.6-5-27.3-2.7c-5.4,1.9-6.5,11.9-1.1,14l28.1,12.4c5.1,2,19.1-3.9,17.2-9
		C178.5,467.1,175,460.9,163.1,456.6z"/>
	<polygon class="st13" points="229,435.2 91.2,406 91.2,306.8 229,273.1 	"/>
	<polygon class="st14" points="229,435.2 222.6,433.8 223.3,274.5 229,273.1 	"/>
</g>
</svg>
