<svg xmlns="http://www.w3.org/2000/svg" viewBox="0 0 505.31 544.04"><g id="Layer_16" data-name="Layer 16"><path d="M521.88,529.1,329.94,640.87a48.07,48.07,0,0,1-48.39,0L89.61,529.1a48.07,48.07,0,0,1-23.89-41.54V263.31a48.07,48.07,0,0,1,23.89-41.54L281.55,110a48.12,48.12,0,0,1,48.39,0L521.88,221.77a48.06,48.06,0,0,1,23.88,41.54V487.56A48.06,48.06,0,0,1,521.88,529.1Z" transform="translate(-40.45 -103.47)" fill="#d3c79e"/></g><g id="Layer_12" data-name="Layer 12"><path d="M243.52,318.12c.41,1.62,1,3.35,2.43,4.24a7,7,0,0,0,2.71.83c2.27.37,1.21,5.62,3.48,5.91.63.08,4.62-4.78,5.19-5.06a3.28,3.28,0,0,0,1.15-1.27,83.43,83.43,0,0,0,4.22-7.71,6.87,6.87,0,0,0,.87-2.9c0-2.7-3-4.54-3.46-7.2-.1-.58-.06-1.18-.21-1.75-.42-1.51-2.07-2.35-3.63-2.55s-3.21.19-4.68-.23c-1.11-.31-2.51-1.8-3.41-2-2.65-.44-3.08.53-4.29,3.66C241.94,307.18,242.21,313,243.52,318.12Z" transform="translate(-40.45 -103.47)" fill="#3c2415"/></g><g id="Layer_5" data-name="Layer 5"><path d="M259.75,305.73c0,.71-7.82,24-7.82,24l4.29,30.34L297.87,362l13.41-4.48-3.12-11.17,2.41-4.77,10.77-6.7L320.39,303l-61.11,1.49Z" transform="translate(-40.45 -103.47)" fill="#cca27d"/></g><g id="Layer_6" data-name="Layer 6"><path d="M263.57,319.82l-27-1.15-20.22,21.65-8.47,39.53c-5.67,18.35-4.33,35.9-7.77,48.17l-63.35-45.86a4.45,4.45,0,0,0-6.59.95L116.27,404.2a5.57,5.57,0,0,0-.4,5.4q31,62.2,92.06,94.37a24,24,0,0,0,9,2.57,6.53,6.53,0,0,0,4.73-1.52c15.76-13.37,20.77-29.95,26.13-46.82,8.22,24,11.91,47,9.51,68.77a3.81,3.81,0,0,0,2.27,3.92c15,6.47,28.61,8.59,41.27,7.35a6.43,6.43,0,0,1,4.35,1.19c7.56,5.41,14.83,8.76,21.37,6.89a5.66,5.66,0,0,1,4.23.45c9.11,4.9,18.23,7.38,27.36,6.37a7.45,7.45,0,0,1,2.66.17,97.5,97.5,0,0,0,29.76,2.47,11.78,11.78,0,0,1,5,.82c22.6,8.78,44.47,13.45,55,7.29a5.68,5.68,0,0,0,2.12-7.64c-13.42-24.58-30.4-50.11-31.13-61.49l-9.22-26.55-42.83-7.15-61.84-71c13.08-26.24,18.73-52.06,11.87-79.27-6.9,33.54-11.91,40.4-28.88,44.32l-19.28-.44c-1.55-.44-3.22-2.63-4.78-3.82C259.34,339.87,260.5,331.16,263.57,319.82Z" transform="translate(-40.45 -103.47)" fill="#3b7777"/></g><g id="Layer_13" data-name="Layer 13"><path d="M317.6,362" transform="translate(-40.45 -103.47)" fill="#604b44"/><path d="M251.11,392.35c2.94,18.51,1.24,47.37-3.36,65.85,8.31,24.3,12,47.62,9.53,69.66,6.05-7.4,12.34-8.2,20.94-8.25a14.56,14.56,0,0,1,1.87.12l18.66,2.48c15.25.65,29.17,3.08,41.32,7.87a35.85,35.85,0,0,0,7,1.91c10.6,1.83,19.4,3.63,25.88-2a15.78,15.78,0,0,1,2.31-1.63c2.26-1.28,4-1,5.74-1.25,12.23-1.73,22-11.3,27.9-22.12,4.52-8.21,7.78-16.24,8.52-20.73.94-4.35-17.53-14.17-15.55-14.57,1-.21-22.5-24.58-22.5-24.58L317.6,318.79c-1.28,15.15-6.39,30.9-17.73,42.12l-13.24,14.64-13.72,3.08" transform="translate(-40.45 -103.47)" fill="#326363"/></g><g id="Layer_17" data-name="Layer 17"><path d="M143.18,560.62l73.37-35.73A38.44,38.44,0,0,1,233.4,521H532c-5.62,6.07-14.38,10.68-22.15,15-50.32,28.19-96.17,57.38-180.25,105Q305.39,654,281.2,641Z" transform="translate(-40.45 -103.47)" fill="#7f7161"/><path d="M-172.53-65.59" transform="translate(-40.45 -103.47)" fill="#7f7161"/><path d="M296.23,535.56c4.69,2.07,10.75-.89,15,1.93,1.61,1.06,2.67,2.78,4.18,4,2.24,1.77,5.26,2.22,8.11,2.17a29.07,29.07,0,0,0,21.3-10,8,8,0,0,0,2.22-4.36c.19-2.57-1.08-6.75-3.48-7.68s-6.55-.26-9.12-.12c-6,.33-11.33,2-17.34,2.33a36.82,36.82,0,0,1-12.34-.9c-2.63-.74-5.45-2.48-8.23-1.46C290.4,523.71,290.41,533,296.23,535.56Z" transform="translate(-40.45 -103.47)" fill="#75685b"/><path d="M427.42,548.4c5.06-1.89,8.85-7.15,10.17-14.1a15.87,15.87,0,0,0,0-4.61c-.31-2.72-2.88-6.14-4.7-6.49s-4.21,1.18-5.79,1.88c-3.67,1.62-6.49,4.36-10.17,6a16.74,16.74,0,0,1-8.08,1.84c-1.9-.12-4.25-1.15-5.66.42-3.15,3.49.45,10.35,4.05,13.13C412.22,550.41,419.66,549.72,427.42,548.4Z" transform="translate(-40.45 -103.47)" fill="#75685b"/></g><g id="Layer_7" data-name="Layer 7"><path d="M368.81,475c-4.61,13.3-11,24.44-20.83,31.51-6.79,14.08-15.8,23.4-27.88,26.14-8.92,1.24-15.94-1.19-20.47-8.47-2.83-6.22-5-12.28-4.23-17.67-5.82-8.82-7.84-20.89-8.83-33.86-10.53-12-16.9-23.59-17.29-34.59l-1.77-20.47A25.38,25.38,0,0,1,264,406.79c1.13-4.91,3.68-7.73,7.56-8.59A5,5,0,0,0,276,400c0,2.19,25.25-14.51,24.66-16-1.21-3,34,44.87,35.7,43.12,2.17,12.18,6,21.82,14.82,23.65,3,1.3,6.94,6.64,11,13.06l6.61,8.12v3" transform="translate(-40.45 -103.47)" fill="#408689"/><path d="M138.2,386.72a4.28,4.28,0,0,0-1.94-3.88l-.1-.06a5.79,5.79,0,0,0-2.82-.65c-1.09,0,.78,2.32-.06,3.07a18.41,18.41,0,0,0-2.64,3,14.62,14.62,0,0,0-1.49,2.76c-2.26,5-7.93,7.69-10.83,12.2a8.71,8.71,0,0,0-1.4,3.11,3.39,3.39,0,0,0,4.67,3.73C128.37,407.06,137.68,396.08,138.2,386.72Z" transform="translate(-40.45 -103.47)" fill="#326363"/><path d="M301.57,398.23a4.6,4.6,0,0,0,1.71-4.39,3.16,3.16,0,0,0-.16-.54c-.75-1.68-1.92-5.14-2.18-2.21a2.39,2.39,0,0,1-2,2.29,18.34,18.34,0,0,0-3.95.55,15,15,0,0,0-2.93,1.12,115.85,115.85,0,0,1-15.64,5.69c-1.72.52-4.81-1.52-6.38-.16a4.13,4.13,0,0,0-1,4,2.55,2.55,0,0,0,.21.47,5.11,5.11,0,0,0,4.56,2.57C284.39,407.43,293.78,404.53,301.57,398.23Z" transform="translate(-40.45 -103.47)" fill="#326363"/><path d="M283.84,404.57" transform="translate(-40.45 -103.47)" fill="#326363"/></g><g id="Layer_10" data-name="Layer 10"><path d="M65.58,360.94h0l1.14,1.15A6.32,6.32,0,0,0,65.58,360.94Z" transform="translate(-40.45 -103.47)" fill="#d8ae8f"/><path d="M66.72,362.13l0,0-.07-.08Z" transform="translate(-40.45 -103.47)" fill="#be9881"/><path d="M66.76,362.16l.73.74-18.31-8.42c-.89-.31-2.14-1-3-.74a2.4,2.4,0,0,0-1.67,2.17,3.76,3.76,0,0,0,1.4,3.58l23.18,17.77c4.73,2.58,6.43,3.59,7.41,4.06l17.71,8.78a12.93,12.93,0,0,1,3.11,2.06l3.1,2.17c.66-.28.6-.57,1.12-.79,5.44-2.26,9-6.65,11.49-11.34,1.2-2.27,2.42-4.72,4.85-5.95s6.69-2.71,9.22-4.89l-.21-.33c-.73-1.18-7.79-27.13-8.26-28.43l-8.79-19.33a12,12,0,0,0-1.37-2.38c-2.78-3.28-6-2-6.76,2.87a7.9,7.9,0,0,0,.08,2.7l1.79,9.57a2.78,2.78,0,0,1,1.21.14c.61.21,1.16.55,1.76.78a11.14,11.14,0,0,1,2.74,1,3.48,3.48,0,0,1,1.3,2.14,8,8,0,0,1,.08,2.54,15.07,15.07,0,0,1-1.44,5.65,1,1,0,0,1-.36.45,1,1,0,0,1-.56.09,9.5,9.5,0,0,1-1.59-.22,1.11,1.11,0,0,1-.82-.5c-.11-.22-.07-.49-.17-.71l0,0,.09.46-29.28-37a5.28,5.28,0,0,0-3.85-2.09c-1.91-.09-2.69,1.11-3.24,2.68a5.64,5.64,0,0,0,.37,4.53l6.39,11.78,8.85,16.33.18.33L57.33,314.71A6.87,6.87,0,0,0,54,312.62c-3.27-.86-5.06.58-5.5,3.57a7.19,7.19,0,0,0,1.19,4.71l13.59,17.38,11.13,14.23.49.63L48.16,331.46a8,8,0,0,0-3.85-2c-2.72-.51-4,.52-3.85,3.17a8.57,8.57,0,0,0,2,4.8l12.71,12.93" transform="translate(-40.45 -103.47)" fill="#d8ae8f"/><path d="M60,352.06a11.47,11.47,0,0,1,1.07,1.42" transform="translate(-40.45 -103.47)" fill="#d8ae8f"/><path d="M80.69,333.75" transform="translate(-40.45 -103.47)" fill="#d8ae8f"/><path d="M104.84,336.17a4.17,4.17,0,0,0-1.21-.14l2.13,11.36,0,0a1.76,1.76,0,0,0,.17.71c.56,1,2.62.8,3,.63C117.84,344.75,113.14,338,104.84,336.17Z" transform="translate(-40.45 -103.47)" fill="#be9881"/><path d="M77.81,328.32c-.43-.35-1.13-.26-1.57-.56l8.85,16.33a1,1,0,0,0,.61.14C86,339.41,81.41,330.85,77.81,328.32Z" transform="translate(-40.45 -103.47)" fill="#be9881"/><path d="M76.24,327.76c.44.3,1.14.21,1.57.56A2.49,2.49,0,0,0,76.24,327.76Z" transform="translate(-40.45 -103.47)" fill="#be9881"/><path d="M63.57,337.2c-.47,0-.7.13-.74.51l11.58,14.8a1,1,0,0,0,.67.08C72.41,345.53,66.12,337.2,63.57,337.2Z" transform="translate(-40.45 -103.47)" fill="#be9881"/><path d="M63.28,338.28a3,3,0,0,1,.29-1.08C63.28,337.47,63.32,337.9,63.28,338.28Z" transform="translate(-40.45 -103.47)" fill="#be9881"/><path d="M55.62,348.51a.93.93,0,0,0-.59.09,1.43,1.43,0,0,0-.68.94l11.2,11.39h0a6.32,6.32,0,0,1,1.11,1.14l.07.08a1.43,1.43,0,0,0,1.43.5C64.41,356.49,57.79,349,55.62,348.51Z" transform="translate(-40.45 -103.47)" fill="#be9881"/><path d="M124.84,364.34c-2.52,2.18-3.19,9.54-7.76,12.36-8.06,5-6.13,6-7.61,9.59-1.35,3.3-2.22,4.07-7.21,5.41-1.79.48-4.24.18-4.89.46l20.85,14.57a3.26,3.26,0,0,0,4-.22c9.49-8.3,13.07-13.94,13-20.19a6,6,0,0,0-1.36-3.64A47.54,47.54,0,0,1,124.84,364.34Z" transform="translate(-40.45 -103.47)" fill="#c4a28d"/></g><g id="Layer_4" data-name="Layer 4"><path d="M290.69,157.87c2.47,7.49,8.26,13.87,15.42,19.22l.1.07c7.46,4.61,9.92,13.18,8.54,23.71l.45,6.88c6.53,6,8.16,13.45,5.77,20.88-2.35,8.21-.27,12.85,2.86,20.84l-6.16,7.24a3.16,3.16,0,0,0-.33,2.3l.41,10.83L308,257.43a3.19,3.19,0,0,0-3.55-1.16c-1.24.45-1.5.75-1.91,2.14-.27.92.25,1.92.58,2.82l7.73,18a30.92,30.92,0,0,1,.66,4.81l-2.86,2.33-4.67-10.77a6.24,6.24,0,0,0-7.29-2.24c-5.41,2-8.35,3.91-8.38,5.57a1.19,1.19,0,0,1-.73,1.07c-12.28,5.74-16.64,8.88-13.57,11.1l-3.75,1.32c-7.59,3-7.5,9.39-6,8.73,2.56-1.1,5.52-1.74,4.62-1a60.23,60.23,0,0,1-5.13,4.07c-3.74,1.51-8.12.38-12.28-2.54-9-12.18-14.06-25-14.51-39a11.06,11.06,0,0,0-.27-1.71c-4.31-22.08-.62-42.69,13.84-59.12,4.26-14.85,11.95-25.18,23.35-32.61Z" transform="translate(-40.45 -103.47)" fill="#d8ae8f"/></g><g id="Layer_2" data-name="Layer 2"><g id="Layer_15" data-name="Layer 15"><g id="Layer_8" data-name="Layer 8"><path d="M274.58,305c-1.42,2.27-4.38,1.43-7.06,1.23s1-3.47-5.1-3.7c-3.33-.13,1.46-6.42,3.49-9a23.59,23.59,0,0,1,5.65-5.67c2.55-1.66,5.58-2.43,8.32-3.75,5.27-2.55,9.33-7.07,14.39-10a30,30,0,0,0,5.3-3.3c2-1.85,1.25-5.36,3.13-7.38,1.05-1.13,11.22-6,12.7-6.42,9.88-2.74,14.71-4.61,7.94,3.25-3.15,3.66,4.2,10.27,3,15.66a10.68,10.68,0,0,1-2,4.62c-1.3,1.54-3.23,2.41-4.73,3.75-2.36,2.13-3.52,5.33-5.78,7.57s-5.33,3.32-8.31,4.34a41,41,0,0,1-10.45,2.59,32.5,32.5,0,0,0-4.07.31,22.61,22.61,0,0,0-5.1,2A46.55,46.55,0,0,1,274.58,305Z" transform="translate(-40.45 -103.47)" fill="#cca48a"/><g id="Layer_9" data-name="Layer 9"><path d="M316.34,272.32c1.08-6.1.23-12.43.88-14.9a2,2,0,0,1,.21-.47,41.46,41.46,0,0,1,12.34-12.14c3.86-1.73,6.14.37,7.74,3.68A42.59,42.59,0,0,1,340.92,278l-1,4.48a4.71,4.71,0,0,1-.81,2.05c-5.06,7.51-13.11,14.75-22.31,21h0l-26.22,24.19h0l-29.14,2.2a1.51,1.51,0,0,1-.56-.05c-7.13-2-9.12-5.44-9.73-11.34h0c-.07-2.38-.06-4.77,0-7.17a213.3,213.3,0,0,0,18.43-13.87h0l17,4.81h0l25.71-21h0l4-11Z" transform="translate(-40.45 -103.47)" fill="#121111"/></g><path d="M268,399.59l.16-36.7a1.11,1.11,0,0,0,0-.17l-3-11.77a16.81,16.81,0,0,1-.53-4.18v-2.85h0a9,9,0,0,1,1.14-3.56c4.64-8.38,9.39-19.23,14.59-31.56a.75.75,0,0,0,0-.59c-3.61-7.59-7.13-10.43-14.51-9.84h0a4.73,4.73,0,0,0-1.93.79c-2.21,1.46-4.09-.47-2.35-3.59a.83.83,0,0,1,.11-.15c2.38-2.54,5.1-4.85,9.12-5.6a.68.68,0,0,0,.46-1.05c-.94-1.34.78-3.48,2.7-4.95a8.57,8.57,0,0,1,1.52-.9l8.25-3.84a4.1,4.1,0,0,0,2.33-1.95c1-3.15,5.67-5.05,10-5.92a5.09,5.09,0,0,1,4.17,1c3.25,2.56,4.53,6.55,5.55,9a6.8,6.8,0,0,1,.43,1.46c.48,2.62,1.74,9.83,2.19,9.4.18-.17.89-12,.59-12.94a.6.6,0,0,0-.06-.11l-8.29-20.52a3.18,3.18,0,0,1,0-2.46,2.47,2.47,0,0,1,3-1.67,4.22,4.22,0,0,1,2.29,1.33A73.72,73.72,0,0,1,320,276.16a18.82,18.82,0,0,1,.72,10.15l-2.34,12a.44.44,0,0,1-.06.16c-9.45,19.65-17.42,38.35-22.83,55.44a7.16,7.16,0,0,0-.28,3l4.56,33.41a.46.46,0,0,1-.09.32c-6.79,8.75-17,12-30.32,10.45A1.53,1.53,0,0,1,268,399.59Z" transform="translate(-40.45 -103.47)" fill="#ddb69b"/></g><g id="Layer_11" data-name="Layer 11"><path d="M274,290.68c1.16.09,2.33.16,3.5.22a3.41,3.41,0,0,1,1.89.46,1.48,1.48,0,0,1-.91.07,17.66,17.66,0,0,0-2.9-.14,5,5,0,0,1-1.49-.06,6.14,6.14,0,0,0-.84-.23,2.48,2.48,0,0,1-.72-.06.34.34,0,0,1,.11-.68c.19,0,.39.21.56.27A3.06,3.06,0,0,0,274,290.68Z" transform="translate(-40.45 -103.47)" fill="none"/><path d="M298.87,280.9" transform="translate(-40.45 -103.47)" fill="#cead9c"/><path d="M295.85,276.82a1.16,1.16,0,0,0-.54-.34,1.18,1.18,0,0,0-.66.14l-2.72,1.19a4,4,0,0,0-1.77,1.11.41.41,0,0,0,0,.36c.05.15.27.18.43.22a27.59,27.59,0,0,0,3.28.32,4,4,0,0,1,1.44.4,26.11,26.11,0,0,1,3.05,1.82c.5.34.51-.24.5-.42C298.52,279.78,297.09,278.49,295.85,276.82Z" transform="translate(-40.45 -103.47)" fill="#cead9c"/><path d="M293.62,285.81a18.84,18.84,0,0,0-12.11-2.37A53.87,53.87,0,0,1,293.62,285.81Z" transform="translate(-40.45 -103.47)" fill="#cead9c"/><path d="M275.11,289.73c.15-.25,1.09-.33,1.66-.33,2.55,0,5.29.09,7.33,1.62a2.57,2.57,0,0,1,1.1,1.71C284.87,293.35,275.05,290.39,275.11,289.73Z" transform="translate(-40.45 -103.47)" fill="#cead9c"/></g><path d="M169.4,157.92" transform="translate(-40.45 -103.47)" fill="#d8ae8f"/></g><path d="M292.65,148.71c23.88-4.3,40.66,8.94,49.13,28.88a9.49,9.49,0,0,0,4.38,4.72c15,7.87,21.25,19.41,20.88,33.77-.46,8.48,2.25,14.06,7.83,17a13.62,13.62,0,0,1,3.12,2.27c10.27,9.92,14.29,22.76,14,37.61a9.53,9.53,0,0,0,3.49,7.54c14.64,12.09,23.87,22.23,21.6,37.64a7.83,7.83,0,0,0,1.49,5.84c11.7,15.73,17.47,31.68,11.95,48.08a10.11,10.11,0,0,0,.34,7.26c6.68,15.39,11.67,31.28,10.21,46.34a7.76,7.76,0,0,0,3.11,7c13.1,9.75,20.94,19.36,16.5,28.69a14.39,14.39,0,0,1-6.8,6.63c-7.36,3.58-11.38,8-6.24,14.9a8.81,8.81,0,0,1,1.12,2c2.49,6.33,3.5,11.82,2.54,16.2a3.71,3.71,0,0,1-6,2.05c-2.48-2-5.79-2.58-10-1.52a6.31,6.31,0,0,1-2.93,0c-6-1.36-10.33-4.63-12.77-10.15a3.44,3.44,0,0,1-.24-.77c-1.65-8.18-4.94-13.67-13.12-16.43a5.55,5.55,0,0,1-2.89-2.26l-1.47-2.3a3.83,3.83,0,0,0-5.08-1.36,12.42,12.42,0,0,1-7.92,1.12,4.94,4.94,0,0,0-5.1,2.87,37.87,37.87,0,0,1-4.75,8.32,5.88,5.88,0,0,1-9.41-.55c-4.22-6.36-5.79-13.17-9.36-18a3.25,3.25,0,0,0-4.72-.43,4.85,4.85,0,0,1-2.52,1,7.75,7.75,0,0,1-6.22-2.69c-5.17-6.62-6.45-14.86-7.87-23.49a3.08,3.08,0,0,0-.73-1.57,12,12,0,0,0-6.28-4.07,6.3,6.3,0,0,1-3.31-2c-7.44-8.35-14-22.11-22-37.23a3.26,3.26,0,0,1,.85-4.19c1.64-1.13.2-3.84-.87-7.69-.12-.42-.17-.84-.25-1.26-1.5-8.26,2.51-13.74,7.63-19a3.23,3.23,0,0,0,.65-3.47c-3.38-8.12-2.87-15.67,2.41-22.52a3.16,3.16,0,0,0-.16-4.06c-3.61-4-5.42-12-2.34-16.84l3.78-8.12a3.22,3.22,0,0,1,1.12-1.28c5.83-3.9,14.85-12.85,18.18-16.81a11.51,11.51,0,0,0,2.58-5.75c1-7,2-23.13-2.79-32.06-2.13-4.22-5.07-6.27-10.59-1.41l-2,1.75a3.21,3.21,0,0,1-5.2-1.59c-1.83-6.59-2.19-12.89,0-18.68a12.36,12.36,0,0,0,.86-4.61c-.08-5.5-1-10.54-4.18-14.31a7.8,7.8,0,0,1-1.82-5.71c.92-11.58-.82-21.54-9.4-27.34l-.29-.18c-9.58-5.18-14.58-12.56-14.76-24.59A3.21,3.21,0,0,1,292.65,148.71Z" transform="translate(-40.45 -103.47)" fill="#604b44"/><g id="Layer_3" data-name="Layer 3"><path d="M240.94,329.79c-4.16,4-1.22,12.43-3.35,14.68-4,4.25-5.24,2.6-7.88,4.35-5.06,3.36-.45,9.93.23,11.18,4.88,8.94-4.33,10.69-3.29,13,4.57,10.18-8.67,12.92-12.22,20.54a10,10,0,0,1-8.05,5.36c-5.89.19-10.34,3.32-15.27,6.33a1,1,0,0,1-1.38-1.27c2.56-4.85,6.18-8.34,5.29-13.84a3.34,3.34,0,0,0-.94-1.82L187.77,382a10.58,10.58,0,0,1-1.11-1.3c-7-9.86-5.11-16.05,5.8-18.54a12,12,0,0,0,2.48-.82c5.51-2.64,6.44-6.8,2.46-12.59-6.38-10.89-3.69-19,6.38-25a14.29,14.29,0,0,1,2.14-1c12.33-4.85,12.21-14.21,7-25.42a7.63,7.63,0,0,0-.74-1.22c-4.75-6.48-3.06-11.9,4.89-16.27a8.69,8.69,0,0,0,3-2.63c2.37-3.41,2.82-7.62,1.54-12.54a10.64,10.64,0,0,0-.83-2.11c-6.17-12.4-5.16-22.77,3.9-31.8a1.64,1.64,0,0,0,.11-2.17c-6.83-8.66-4.27-16.66,7.07-20.47a3.09,3.09,0,0,0,2.08-2.64c.55-5.65,3.26-9.71,8.38-12a2.57,2.57,0,0,0,1.37-1.38c3.1-7.66,7.26-13.86,13.95-16.58a13,13,0,0,0,5.8-4.74c6.82-9.91,17.38-17.53,28-21.66l-.8,8.68a218.84,218.84,0,0,0-29,23,6.94,6.94,0,0,0-.72.81,65.29,65.29,0,0,0-10,20.28c-11.28,13-16,28.05-14.83,44.94,0,22.17,6.45,39.17,14.78,53.83a5,5,0,0,1,.81,3.36c-1.88,9.24-.09,20.22-6.18,22.47a9.13,9.13,0,0,0-3.2,2Z" transform="translate(-40.45 -103.47)" fill="#604b44"/></g><path d="M287.43,202.66c4.68-5.7,11.18-5.54,17.17-2.1,4.93,3.2,9.21,6.64,12.6,11.38-5.42-.87-10.36-4.06-15.3-5.89a49,49,0,0,0-6.18-2.12c-2.73-.48-5.5-.26-8.29-1.27Z" transform="translate(-40.45 -103.47)" fill="#604b44"/><path d="M273.2,200.27c-3,.28-5.58-.45-8.36-.62a51.53,51.53,0,0,0-6.49.72c-5.22.7-10.74,2.73-16.22,2.39,4.35-3.88,9.29-6.3,14.79-8.34a17.11,17.11,0,0,1,9.49-.36,11.92,11.92,0,0,1,6.79,6.21Z" transform="translate(-40.45 -103.47)" fill="#604b44"/></g><g id="Layer_18" data-name="Layer 18"><path d="M431.5,547.94l-17-.23a6.08,6.08,0,0,1-5.75-4.37l-14.22-48.53c-.42-2.37.47-2.55,2.26-3.44,11.32-5.6,35.81-6.81,51.82-.44,2.11.84,3.53,1.8,3.06,4l-14.24,48.66A6.09,6.09,0,0,1,431.5,547.94Z" transform="translate(-40.45 -103.47)" fill="#ba8e2d"/><path d="M411,518l30,6c5.05-22.92,9.29-44.73,8.2-59.12-8.4,8.48-13.15,20.22-16.07,33.53a130.94,130.94,0,0,0,.16-48A83.23,83.23,0,0,0,423.45,497a98.18,98.18,0,0,0-14.93-46.59c-.86,17.61.09,33.75,4.76,46.94-2.83-11.75-11.79-25.66-23-38.91C394.59,481,401,501.38,411,518Z" transform="translate(-40.45 -103.47)" fill="#4f7134"/><path d="M431.49,547.94l-17-.23a6.08,6.08,0,0,1-5.75-4.37l-14.22-48.53a2.7,2.7,0,0,1,3.62-3.25c17.27,6.94,33.88,6.72,49.89.11a2.69,2.69,0,0,1,3.63,3.24l-14.24,48.66A6.09,6.09,0,0,1,431.49,547.94Z" transform="translate(-40.45 -103.47)" fill="#dba827"/></g><g id="Layer_14" data-name="Layer 14"><path d="M314.47,222.07s-6,6.67-12.77,6.21-12.08-4-11.82-7.88,6-6.67,12.78-6.21S314.47,222.07,314.47,222.07Z" transform="translate(-40.45 -103.47)" fill="#ece6e2"/><path d="M272.7,218s-6.68,5.28-13,3.75-10.67-5.69-9.79-9.29,6.68-5.27,13-3.74S272.7,218,272.7,218Z" transform="translate(-40.45 -103.47)" fill="#ece6e2"/><ellipse cx="259.84" cy="118.13" rx="5.1" ry="6.18" fill="#443b37"/><ellipse cx="218.97" cy="111.57" rx="5.1" ry="6.18" fill="#443b37"/><path d="M264.52,243.44,277.57,248c-.49,2-4.21,3-6.63,3.2a4.19,4.19,0,0,1-3-1C266.21,248.87,263.8,246.18,264.52,243.44Z" transform="translate(-40.45 -103.47)" fill="#be9881"/><path d="M251.93,258.67a109.09,109.09,0,0,1,34.7,8.94h0a7,7,0,0,1-1.17,2.95C271.09,290.87,253,284,251.93,260.32Z" transform="translate(-40.45 -103.47)" fill="#b76c42"/><path d="M252.46,259.49A174.7,174.7,0,0,0,285.87,268l-.44.88c-15.06,13.78-26.72,11.93-33-8.56Z" transform="translate(-40.45 -103.47)" fill="#9e4a23"/><path d="M252.46,259.49,285.87,268l-3.37,1.81a122.81,122.81,0,0,1-28.66-7.48Z" transform="translate(-40.45 -103.47)" fill="#e2d7d3"/><path d="M256.61,270l.39.61c4.92,7.07,11.09,9.13,18.74,5.16l.86-.44A21,21,0,0,0,256.61,270Z" transform="translate(-40.45 -103.47)" fill="#8c3f1f"/></g></svg>