<?xml version="1.0" encoding="utf-8"?>
<!-- Generator: Adobe Illustrator 26.0.3, SVG Export Plug-In . SVG Version: 6.00 Build 0)  -->
<svg version="1.1" xmlns="http://www.w3.org/2000/svg" xmlns:xlink="http://www.w3.org/1999/xlink" x="0px" y="0px"
	 viewBox="0 0 612 792" style="enable-background:new 0 0 612 792;" xml:space="preserve">
<style type="text/css">
	.st0{display:none;}
	.st1{fill:#D8AC54;}
	.st2{fill:#443B21;}
	.st3{fill:#3B2314;}
	.st4{fill:#BB9377;}
	.st5{fill:#3A7778;}
	.st6{fill:#604B43;}
	.st7{fill:#326363;}
	.st8{fill:#7F7262;}
	.st9{fill:#75685B;}
	.st10{fill:#408588;}
	.st11{fill:#D7AD8E;}
	.st12{fill:#BE9780;}
	.st13{fill:#302E28;}
	.st14{fill:#3D392F;}
	.st15{display:none;fill:#433F37;}
	.st16{fill:#433F37;}
	.st17{fill:#DCB59A;}
	.st18{fill:none;}
	.st19{fill:#CEAD9B;}
	.st20{fill:#BA8E2E;}
	.st21{fill:#4E7134;}
	.st22{fill:#DBA728;}
	.st23{fill:#ECE5E1;}
	.st24{fill:#443B37;}
	.st25{fill:#B76C42;}
	.st26{fill:#9E4A23;}
	.st27{fill:#E2D7D2;}
	.st28{fill:#8C3F1F;}
</style>
<g id="Layer_1" class="st0">
</g>
<g id="Layer_16" class="st0">
</g>
<g id="Layer_21">
	<g>
		<path class="st1" d="M522.1,256.8L330.2,145.1c-15-8.7-33.4-8.7-48.4,0L89.9,256.8C75.1,265.4,66,281.3,66,298.4l0,224.2
			c0,17.1,9.1,32.9,23.9,41.5l84.4,49.2l0,0l263.6-1.8v1.7l84.3-49.1c14.8-8.6,23.9-24.4,23.9-41.5V298.4
			C546,281.3,536.9,265.4,522.1,256.8z"/>
		<path class="st2" d="M174.3,613.3L174.3,613.3l107.5,62.6c15,8.7,33.4,8.7,48.4,0l107.6-62.7v-1.7L174.3,613.3z"/>
	</g>
</g>
<g id="Layer_22">
	<path class="st2" d="M534.4,553.9l-96.8,57.7l0.2,1.6c38.6-21.8,90.8-53.6,92.4-55L534.4,553.9z"/>
</g>
<g id="Layer_12">
	<path class="st3" d="M321,380.1c-0.8-0.2-8-16.1-8.7-16.2c-2-0.3,4.3,20.5,3.4,22.9c-1.5,3.8-1.3,8.1-0.3,12
		c0.3,1.2,0.8,2.5,1.8,3.2c0.6,0.4,1.3,0.5,2,0.6c1.7,0.3-1.3,6.2,0.4,6.4c0.5,0.1,13.7,2.1,14,1.7c1-1.1,1.3-6.6,1-6.9l0.1-9.1
		c0-2-3-8.8-3.3-10.8L321,380.1z"/>
</g>
<g id="Layer_5">
	<path class="st4" d="M333.8,413.1l-3.4,17.2l20.5,6.8l16.2-8.8l-2.1-8.4l1.6-3.6l7.2-5l-3.7-45.7l-38.6,18.8
		C334.4,394.2,335.1,403.8,333.8,413.1z"/>
</g>
<g id="Layer_6">
	<path class="st5" d="M280.2,533.8c12.3-9.4,38.3-23.9,36-28.5c3.4,6.9,10.7,33.9,8.9,50.3c-0.1,1.3,0.5,2.4,1.7,2.9
		c11.2,4.9,21.5,6.4,31,5.5c1.2-0.1,2.3,0.2,3.3,0.9c5.7,4.1,11.1,6.6,16,5.2c1.1-0.3,2.2-0.2,3.2,0.3c6.8,3.7,13.7,5.5,20.5,4.8
		c0.7-0.1,1.3,0,2,0.1c7.3,1.8,14.7,2.3,22.3,1.9c1.3-0.1,2.5,0.2,3.7,0.6c17,6.6,33.4,10.1,41.3,5.5c2-1.2,2.7-3.7,1.6-5.7
		c-10.1-18.5-22.8-37.6-23.4-46.2l-6.9-19.9l-32.2-5.4L363,452.8c9.8-19.7,17.3-37.6,12.2-58.1c-17.3,44.2-24.6,56.7-41.6,15.7
		l-25.8-4.4l-13.3,9.4l-6.4,29.7c-4.3,13.8-5.3,39.9-7.9,49.2c-1.8,1.5-4.3,1.5-5.5,4.6c-2,1.6-4,3.3-6,4.9
		c-3.7,3.1-7.5,6.2-11.2,9.3c-0.2,0.1-1.7,1.4-1.6,3.5c0,1.3,0.6,2.6,1.8,3.4l18.9,13.8C277.7,534.7,279.1,534.6,280.2,533.8z"/>
</g>
<g id="Layer_13">
	<path class="st6" d="M371,431.7"/>
	<path class="st7" d="M321.7,455.7c-2.9,16.5-1.5,36.9-5,50.8c6.2,18.2,10.9,33.2,9,49.8c4.5-5.6,9.3-6.2,15.7-6.2
		c0.5,0,0.9,0,1.4,0.1l14,1.9c11.4,0.5,21.9,2.3,31,5.9c1.6,0.6,3.3,1.1,5,1.4c8.1,1.4,36.9-3.5,41.8-7.7l-0.4-39
		c0.8-0.2-16.9-18.5-16.9-18.5l-28.5-46C364.2,461.3,332.4,471.8,321.7,455.7z"/>
</g>
<g id="Layer_17">
	<path class="st8" d="M437.8,611.6l-264,1.8L295.1,554c3.9-1.9,8.3-2.9,12.7-2.9l226.7,2.8L437.8,611.6z"/>
	<path class="st8" d="M-172.5-65.6"/>
	<path class="st9" d="M351.2,563.1c3.5,1.6,8.1-0.7,11.3,1.5c1.2,0.8,2,2.1,3.1,3c1.7,1.3,4,1.7,6.1,1.6c6.1-0.1,12-2.9,16-7.5
		c0.8-0.9,1.6-2,1.7-3.3c0.1-1.9-0.8-5.1-2.6-5.8c-1.8-0.7-4.9-0.2-6.8-0.1c-4.5,0.3-8.5,1.5-13,1.8c-3.2,0.2-6.2,0.2-9.3-0.7
		c-2-0.6-4.1-1.9-6.2-1.1C346.8,554.2,346.8,561.2,351.2,563.1z"/>
	<path class="st9" d="M494.8,575.8c3.8-1.4,6.6-5.4,7.6-10.6c0.2-1.1,0.1-2.2,0-3.5c-0.2-2-2.2-4.6-3.5-4.9
		c-1.4-0.3-3.2,0.9-4.3,1.4c-2.8,1.2-4.9,3.3-7.6,4.5c-1.9,0.9-3.8,1.5-6.1,1.4c-1.4-0.1-3.2-0.9-4.3,0.3c-2.4,2.6,0.3,7.8,3,9.9
		C483.3,577.3,488.9,576.8,494.8,575.8z"/>
</g>
<g id="Layer_7">
	<path class="st10" d="M348.6,565c-0.1-0.7-0.4-0.8-0.4-2.3c-0.3-1.7-13.6-18.8-11.9-20.5c2.1-2.1,2.3-3.4,12.2-9.2
		c1.6-0.9,1.3-1.5,4.7-3.8c6.1-4.1,9.4-3.6,11.8-5c1.9-1.1,3-2.1,3.5-2.7c0.6-0.7,1.4-1.3,2.3-1.6c1.5-0.5,2.1-0.1,3.9-1.3
		c2.7-4.6,6.8-13.5,9.3-21.5l3.1-9l41.7,21.2c-5.3,8.6-15.6,35.4-67.1,55.9c-2.6,1-5.4,1.5-8.1,1.5c-1.2,0-2.3-0.4-3.4-0.9
		L348.6,565z"/>
	<path class="st7" d="M345.7,463.7"/>
</g>
<g id="Layer_10">
	<g>
		<path class="st11" d="M181.7,430.9C181.7,430.9,181.7,430.9,181.7,430.9l0.8,0.9C182.3,431.5,182.1,431.1,181.7,430.9z"/>
		<path class="st12" d="M182.6,431.8C182.6,431.8,182.6,431.8,182.6,431.8L182.6,431.8C182.6,431.8,182.6,431.8,182.6,431.8z"/>
		<path class="st11" d="M177.6,424.3c0.3,0.3,0.6,0.7,0.8,1.1"/>
		<path class="st11" d="M193.1,410.5"/>
		<path class="st12" d="M189.7,406c0.3,0.2,0.9,0.2,1.2,0.4C190.6,406.2,190.2,406,189.7,406z"/>
		<path class="st12" d="M180,413.9c0-0.3,0.1-0.6,0.2-0.8C180,413.3,180,413.6,180,413.9z"/>
	</g>
</g>
<g id="Layer_4">
	<path class="st11" d="M331.1,384.4c-4.8-0.1-9.2-2.5-11.9-6.5l0,0c-5.4-8.1-7.2-11.9-7.7-21.1c0-0.8-1.2-0.4-1.3-1.2
		c-3-15.7-0.6-30.5,9.1-42.5c0.9-1.1,1.6-2.4,2-3.7c3.3-10,8.9-17.2,16.9-22.4l2.6-1.8c4.9-3.3,11.4-2.3,15.3,2.1
		c1.7,1.9,3.7,3.7,5.9,5.3c0.3,0.2,0.5,0.4,0.8,0.6c5.1,3.4,6.9,9.3,6.2,16.5c-0.1,0.7-0.1,1.4-0.1,2.1l0,0.3c0.1,2.2,1,4.3,2.4,6.1
		c3.1,4,3.7,8.7,2.2,13.3c-1.1,3.9-0.9,6.7,0,9.7c1.1,3.9,0.3,8.1-2.3,11.2l-0.1,0.2c-0.4,0.5-0.3,1.1-0.2,1.7l0.2,4.9
		c0.1,2.2-0.4,4.5-1.5,6.4c-7.5,13.6-23.9,17.5-29.8,18.5c-1.2,0.2-2.4,0.3-3.5,0.3L331.1,384.4z"/>
	<path class="st11" d="M365.9,369.6"/>
</g>
<g id="Layer_2">
	<g id="Layer_15">
		<g id="Layer_8">
			<g id="Layer_9">
			</g>
			<polygon class="st13" points="446.6,571.4 297.9,573.9 250.8,597.3 403.8,597.3 			"/>
			<rect x="250.8" y="597.3" class="st14" width="153" height="6.6"/>
			<polygon class="st14" points="446.2,576.7 403.8,603.9 403.8,597.3 446.6,571.4 			"/>
			<polygon class="st15" points="326,510.1 295.9,510.1 323.8,496 346.8,496 			"/>
			<polygon class="st16" points="412.3,589.5 306,589.5 328.1,576 437.8,574.6 			"/>
			<polygon class="st16" points="402.5,596 297.4,595.7 304.4,591.4 409.1,591.8 			"/>
			<path class="st17" d="M353,563.9l-26.2,8.5c0,0-0.1,0-0.1,0.1l-7.7,4.9c-0.9,0.6-1.9,1-2.9,1.4l-2,0.7l0,0
				c-0.9,0.2-1.7,0.2-2.8,0c-7.1-1.4-15.9-2.2-25.9-3c-0.2,0-0.3,0-0.4,0.1c-4.6,4.3-5.8,7.5-3.6,12.7l0,0c0.2,0.5,0.6,0.9,1,1.2
				c1.6,1.2,0.6,3-2,2.5c0,0-0.1,0-0.1,0c-2.4-1.1-4.6-2.5-6.1-5.2c-0.2-0.3-0.6-0.4-0.9-0.1c-0.7,1-2.7,0.3-4.2-0.8
				c-0.4-0.3-0.7-0.5-1-0.9l-4.7-5c-0.5-0.5-1.2-1.2-1.9-1.2c-2.5,0-4.9-2.9-6.6-5.8c-0.6-1-0.7-2.2-0.3-3.2
				c1.1-2.9,3.6-4.8,5.2-6.1c0.3-0.2,0.6-0.5,0.9-0.6c1.8-1,6.6-3.5,6.2-3.8c-0.2-0.1-8.8,2.2-9.4,2.6c0,0,0,0-0.1,0.1l-12.7,10.7
				c-0.5,0.4-1.1,0.6-1.8,0.6c-1.1-0.1-1.8-0.7-1.9-1.7c-0.1-0.7,0.1-1.4,0.4-1.9c3.2-5.8,6.8-10.9,11.3-14.9
				c2.1-1.7,4.3-2.4,7.1-2.9l9.1-1.1c0,0,0.1,0,0.1,0c16.2,2.2,31.4,3.5,44.9,3.3c0.8,0,1.6-0.2,2.2-0.5l22.8-11.1
				c0.1,0,0.2,0,0.3,0c7.8,2.8,12.5,9.4,14.5,19.2C353.9,563.1,353.6,563.7,353,563.9z"/>
		</g>
		<g id="Layer_11">
			<path class="st18" d="M338.2,378.1c0.9,0.1,1.8,0.1,2.6,0.2c0.5,0,1,0.1,1.4,0.3c-0.2,0.1-0.5,0.1-0.7,0.1
				c-0.7-0.1-1.5-0.1-2.2-0.1c-0.4,0-0.8,0.1-1.1,0c-0.2-0.1-0.4-0.2-0.6-0.2c-0.2,0-0.4,0-0.5,0c-0.3-0.1-0.3-0.5,0.1-0.5
				c0.1,0,0.3,0.2,0.4,0.2C337.8,378.1,338,378.1,338.2,378.1z"/>
			<path class="st19" d="M357,370.8"/>
		</g>
		<path class="st11" d="M259.7,278.4"/>
	</g>
	<g id="Layer_19">
	</g>
	<path class="st6" d="M364.3,371.2c-1.6-3.2-1.1-8.3,0.5-10.6l5.1-9.2c-1.4-5-1.6-9.7,0-14c0.4-1.1,0.7-2.3,0.6-3.4
		c-0.1-4.1-0.8-7.9-3.1-10.7c-1-1.2-1.5-2.7-1.4-4.3c0.7-8.7-0.6-16.2-7.1-20.5c-0.1,0-0.1-0.1-0.2-0.1c-7.2-3.9-10.9-9.4-11.1-18.5
		c0-1.2,0.8-2.2,2-2.4c17.9-3.2,30.5,6.7,36.9,21.7c0.7,1.5,1.8,2.8,3.3,3.6c11.2,5.9,16,14.6,15.7,25.4c-0.3,6.4,1.7,10.6,5.9,12.8
		c0.9,0.5,1.7,1,2.4,1.7c7.7,7.5,10.7,17.1,10.5,28.2c0,2.2,0.9,4.3,2.6,5.7c11,9.1,17.9,16.7,16.2,28.3c-0.2,1.6,0.2,3.1,1.1,4.4
		c8.8,11.8,13.1,23.8,9,36.1c-0.6,1.8-0.5,3.7,0.3,5.5c5,11.6,8.8,23.5,7.7,34.8c-0.2,2,0.7,4,2.3,5.2c9.8,7.3,15.7,14.5,12.4,21.5
		c-1,2.2-2.9,3.9-5.1,5c-5.5,2.7-8.5,6-4.7,11.2c0.3,0.5,0.6,1,0.8,1.5c1.9,4.8,1.1,8.3,0.3,11.6c-0.4,2-1.3,3.5-2.9,2.1
		c-1.9-1.5-4.3-1.9-7.5-1.1c-0.7,0.2-1.5,0.2-2.2,0c-4.5-1-7.7-3.5-9.6-7.6c-0.1-0.2-0.1-0.4-0.2-0.6c-1.2-6.1-3.7-10.3-9.8-12.3
		c-0.9-0.3-1.7-0.9-2.2-1.7l-1.1-1.7c-0.8-1.3-2.5-1.8-3.8-1c-1.7,0.9-3.7,1.1-6,0.8c-1.6-0.2-3.1,0.7-3.8,2.1
		c-1,2.1-2.1,4.4-3.6,6.3c-1.9,2.3-5.4,2-7.1-0.4c-3.2-4.8-4.3-9.9-7-13.5c-0.8-1.1-2.4-1.2-3.5-0.3c-0.5,0.4-1.1,0.7-1.9,0.7
		c-1.6,0.2-3.7-0.8-4.7-2c-3.9-5-4.8-11.2-5.9-17.6c-0.1-0.4-0.3-0.9-0.6-1.2c-1.4-1.6-3-2.7-4.7-3.1c-1-0.2-1.8-0.8-2.5-1.5
		c-5.6-6.3-10.5-16.6-16.5-27.9c-0.6-1.1-0.4-2.5,0.6-3.2c1.2-0.9,0.1-2.9-0.7-5.8c-0.1-0.3-0.1-0.6-0.2-0.9
		c-1.1-6.2,1.9-10.3,5.7-14.3c0.7-0.7,0.9-1.7,0.5-2.6c-2.5-6.1-2.2-11.8,1.8-16.9c0.7-0.9,0.7-2.2-0.1-3c-2.7-3-4.1-9-1.8-12.7
		C370.2,391.2,369.6,381.4,364.3,371.2z"/>
	<g id="Layer_3">
		<path class="st6" d="M320.2,395.7c-1.4,5,1.2,11.9-2.4,13.3c-0.9,0.3-1.7,0.8-2.3,1.4l-1.1,1c-3.1,3-0.9,9.3-2.5,11
			c-3,3.2-3.9,2-5.9,3.3c-3.8,2.5-0.3,7.5,0.2,8.4c3.7,6.7-3.3,8-2.5,9.8c3.3,7.4-5.9,9.6-8.9,14.9c-1.3,2.3-4.5,4.3-7.1,4.6
			c-1.3,0.1-2.6,0.4-3.7,0.9c-2.6,1-5-1.4-4.2-4.1c0.2-0.6,0.3-1.1,0.3-1.7c0.1-1.4-0.5-2.8-1.5-3.8l-3.9-3.9
			c-0.4-0.4-0.8-0.8-1.1-1.3c-5.1-7.3-3.7-11.9,4.5-13.7c0.9-0.2,1.8-0.5,2.6-1c3.5-2,4-5,1.2-9.1c-4.8-8.2-2.8-14.3,4.8-18.7
			c0.5-0.3,1.1-0.5,1.6-0.7c9.2-3.6,9.2-10.5,5.3-18.8c-0.2-0.5-0.5-0.9-0.8-1.4c-3.2-4.6-2.1-8.5,3.2-11.6c2.9-1.7,4.6-4.9,4.6-8.2
			c0-0.9-0.1-1.9-0.4-2.9c-0.2-0.9-0.5-1.7-0.9-2.6c-4.2-8.5-3.7-15.8,1.7-22.1c1.1-1.3,1.3-3.1,0.4-4.6c-3.5-5.6-1.7-10.7,5.2-13.4
			c1.5-0.6,2.6-2,2.9-3.6c0.6-3.4,2.4-5.9,5.4-7.5c0.9-0.5,1.7-1.3,2.1-2.3c2.2-5.2,5.1-9.4,9.6-11.4c2.1-0.9,3.9-2.4,5.2-4.2
			c4.5-6.4,8.8-10.2,15.3-13.2c1.2-0.6,2.7-0.1,3.3,1.1l0.4,0.7c0.6,1.2,0.2,2.6-0.8,3.3c-7.4,5.1-14.1,10.4-19.8,15.8
			c-0.3,0.3-0.6,0.6-0.8,0.9c-3.1,4.1-5.5,9-7.3,14.6c-0.1,0.3-0.3,0.6-0.5,0.9c-7.5,8.8-11,18.9-10.9,30.1c0,1.4,0.2,2.8,0.4,4.2
			c0.3,1.5,0.4,3.1,0.4,4.6c0.3,9.7,2.4,19.2,7.7,28.5c0.1,0.2,0.9,1.1,1,1.4C321.4,388.5,321.3,391.8,320.2,395.7z"/>
	</g>
	<g>
		<path class="st6" d="M348.4,312c5-7.7,13.4-3.2,18.3,1.9c1.6,1.5,3,3.1,4,5.1c-4.2-0.2-8.1-2.5-11.8-3.7c-1.3-0.5-3.3-1.2-4.5-1.6
			C352.4,313.2,350.4,313.1,348.4,312L348.4,312z"/>
	</g>
	<g>
		<path class="st6" d="M337.7,310.3c-2.3,0.5-4.1,0.3-6.2,0.2c-1.3,0.1-3.4,0.4-4.7,0.6c-3.9,0.4-8.2,1.8-12.4,1
			c1.5-1.7,3.2-3,5.1-4.1c2.8-1.6,5.9-3.4,9.4-3.6c1.3-0.1,2.7,0,4,0.4C335.2,305.9,336.9,307.7,337.7,310.3L337.7,310.3z"/>
	</g>
</g>
<g id="Layer_18">
	<path class="st20" d="M495.4,571.4l-12.8-0.2c-2,0-3.8-1.4-4.3-3.3l-10.7-36.4c-0.3-1.8,0.4-1.9,1.7-2.6c8.5-4.2,26.9-5.1,38.9-0.3
		c1.6,0.6,2.6,1.4,2.3,3l-10.7,36.5C499.3,570,497.4,571.4,495.4,571.4z"/>
	<path class="st21" d="M476.4,533.4l22.5,4.5c3.8-17.2,7-33.6,6.2-44.4c-6.3,6.4-9.9,15.2-12.1,25.2c2.3-11.6,2.3-23.6,0.1-36
		c-5.8,10.7-8.3,22.3-7.4,35c0,0,3.3-9.4-11.2-35c-0.7,13.2,0.1,25.3,3.6,35.3c-2.1-8.8-8.9-19.3-17.2-29.2
		C464.1,505.6,468.8,521,476.4,533.4z"/>
	<path class="st22" d="M495.4,571.4l-12.8-0.2c-2,0-3.8-1.4-4.3-3.3l-10.7-36.4c-0.5-1.6,1.1-3.1,2.7-2.4c13,5.2,25.4,5.1,37.5,0.1
		c1.6-0.7,3.2,0.8,2.7,2.4l-10.7,36.5C499.2,570,497.4,571.4,495.4,571.4z"/>
</g>
<g id="Layer_14">
	<g>
		<path class="st23" d="M359.8,320.7c-5.1-0.3-9.4,1.7-9.6,4.7c-0.1,1.6,1,3.1,2.9,4.2c-0.3-0.5-0.5-1.1-0.5-1.8
			c0-2.6,1.7-4.6,3.8-4.6c2.1,0,3.8,2.1,3.8,4.6c0,1.8-0.7,3-1.8,3.5c0.2,0,0.3,0,0.5,0.1c5.1,0.3,9.6-4.7,9.6-4.7
			S364.9,321.1,359.8,320.7z"/>
		<path class="st24" d="M360.3,327.7c0-2.6-1.7-4.6-3.8-4.6c-2.1,0-3.8,2.1-3.8,4.6c0,0.7,0.2,1.3,0.5,1.8c1.4,0.8,3.3,1.4,5.4,1.7
			C359.7,330.7,360.3,329.5,360.3,327.7z"/>
	</g>
	<g>
		<path class="st23" d="M329.9,316.6c-4.7-1.1-9,0.1-9.7,2.7c-0.4,1.5,0.3,3,2,4.3c0-0.2,0-0.4,0-0.5c0-2.6,1.7-4.6,3.8-4.6
			s3.8,2.1,3.8,4.6c0,1.3-0.5,2.5-1.2,3.4c5.1,1,8.7-3,8.7-3S334.7,317.8,329.9,316.6z"/>
		<path class="st24" d="M326,318.4c-2.1,0-3.8,2.1-3.8,4.6c0,0.2,0,0.4,0,0.5c1.2,0.9,3,1.8,5.4,2.6c0.4,0.1,0.7,0.2,1,0.3
			c0.7-0.8,1.2-2,1.2-3.4C329.8,320.5,328.1,318.4,326,318.4z"/>
	</g>
	<path class="st12" d="M332.6,340.8l10,2.7c-0.3,1.5-3,2.5-4.8,2.8c-0.8,0.1-1.6-0.1-2.3-0.5C334.2,344.8,332.2,342.9,332.6,340.8z"
		/>
	<path class="st25" d="M321.7,354.1c8.7,0.7,17.4,2.9,26.1,6.7l0,0c-0.1,0.6-0.4,1.5-0.9,2.2c-10.8,15.3-24.4,10.1-25.2-7.7V354.1z"
		/>
	<path class="st26" d="M322.1,354.7c7.8,2.9,16.2,5,25.1,6.4l-0.3,0.7c-11.3,10.4-20.1,9-24.8-6.4V354.7z"/>
	<path class="st27" d="M322.1,354.7l25.1,6.4l-2.5,1.4c-7.7-1.1-14.8-2.9-21.5-5.6L322.1,354.7z"/>
	<path class="st28" d="M325.1,362.6l0.3,0.5c3.7,5.3,8.3,6.9,14.1,3.9l0.6-0.3C335.9,362.8,331,361.3,325.1,362.6z"/>
</g>
<g id="Layer_20">
	<g>
		<path class="st18" d="M187.2,549.9c0.2-0.3,0.5-0.6,0.8-0.8c1.6-1.3,5.9-4.7,5.4-4.8c-0.2-0.1-8.3,3.7-8.7,4.3c0,0,0,0.1-0.1,0.1
			l-0.4,0.4v4.9C185.1,552.3,186.4,550.9,187.2,549.9z"/>
		<path class="st17" d="M185.5,547.8c0.4-0.1,0.8-0.3,1.2-0.5c1.9-0.9,6.6-3.1,6.8-3.1c0.4,0.1-3.8,3.5-5.4,4.8
			c-0.3,0.3-0.6,0.5-0.9,0.9c-0.8,1-2,2.4-2.9,4c-1.4,2-1.3,4,0,6.2c2.1,2.5,5,4.8,7.3,4.3c0.7-0.1,1.6,0.4,2.1,0.8l5.5,4.1
			c0.4,0.3,0.8,0.5,1.2,0.7c1.6,0.7,3.6,1,4.1,0c0.2-0.3,0.6-0.4,0.9-0.1c1.9,2.4,4.4,3.3,7,4c0,0,0.1,0,0.1,0
			c2.7,0,3.3-1.9,1.5-2.8c-0.5-0.2-0.9-0.6-1.2-1l0,0c-3-4.7-2.4-8,1.3-13.1c0.1-0.1,0.2-0.2,0.4-0.2c10-1,18.9-1.8,26.1-1.7
			c1.1,0,1.9-0.2,2.8-0.5l1.9-1c0.9-0.5,1.8-1.1,2.6-1.9l6.7-6.2c0,0,0.1-0.1,0.1-0.1l24.3-13.1c0.5-0.3,0.7-0.9,0.5-1.4
			c-3.7-9.3-9.6-14.9-17.8-16.2c-0.1,0-0.2,0-0.2,0.1l-20.4,15c-0.6,0.4-1.3,0.7-2.1,0.9c-13.2,2.6-28.4,4-44.8,4.9c0,0-0.1,0-0.1,0
			l-8.8,2.8c-0.3,0.1-0.6,0.2-0.9,0.4c-7,4-7.2,7.1-2.7,9.1c1.2,0.5,2.5,0.6,3.8,0.2L185.5,547.8z"/>
		<path class="st13" d="M184.1,559.9c0.1,0.1,0.1,0.1,0.2,0.2"/>
		<path class="st13" d="M183.2,556.8"/>
	</g>
	<rect x="212.2" y="535.5" class="st13" width="24.6" height="62.3"/>
	<path class="st13" d="M232,590.6c-12.6-4.5-20.6-5-27.3-2.7c-5.4,1.9-6.5,11.9-1.1,14l28.1,12.4c5.1,2,19.1-3.9,17.2-9
		C247.4,601.1,243.9,594.9,232,590.6z"/>
	<polygon class="st13" points="297.9,569.2 160.1,540 160.1,440.8 297.9,407.1 	"/>
	<polygon class="st14" points="297.9,569.2 291.5,567.8 292.2,408.5 297.9,407.1 	"/>
</g>
</svg>
