<svg xmlns="http://www.w3.org/2000/svg" viewBox="0 0 316.52 316.52"><g id="Layer_1" data-name="Layer 1"><circle cx="158.26" cy="158.26" r="158.26" fill="#f4f0ef"/></g><g id="Layer_4" data-name="Layer 4"><circle cx="157.39" cy="102.61" r="50.43" fill="none" stroke="#231f20" stroke-miterlimit="10" stroke-width="8"/><path d="M386.85,399.69c-6.75-8-17-13.37-25.85-11.76H361a8.63,8.63,0,0,0-2.95,1.48c-7.74,5.26-14.43,8.5-21.65,10.48a59.07,59.07,0,0,1-31.22,0c-7.22-2-13.91-5.22-21.66-10.48a8.49,8.49,0,0,0-2.94-1.48h0c-8.86-1.61-19.1,3.79-25.86,11.76-12.11,14.29-17.41,35.81-12.55,54.64,3.92,15.19,13.52,28.27,29.19,29h99c15.67-.74,25.27-13.82,29.19-29C404.27,435.5,399,414,386.85,399.69Z" transform="translate(-162.48 -228.3)" fill="none" stroke="#231f20" stroke-miterlimit="10" stroke-width="8"/></g></svg>